<?xml version="1.0" encoding="UTF-8" standalone="no"?>
<!-- Created with Inkscape (http://www.inkscape.org/) -->

<svg
   xmlns:dc="http://purl.org/dc/elements/1.1/"
   xmlns:cc="http://creativecommons.org/ns#"
   xmlns:rdf="http://www.w3.org/1999/02/22-rdf-syntax-ns#"
   xmlns:svg="http://www.w3.org/2000/svg"
   xmlns="http://www.w3.org/2000/svg"
   xmlns:sodipodi="http://sodipodi.sourceforge.net/DTD/sodipodi-0.dtd"
   xmlns:inkscape="http://www.inkscape.org/namespaces/inkscape"
   width="495.65204mm"
   height="73.825844mm"
   viewBox="0 0 1756.2474 261.58763"
   id="svg3422"
   version="1.1"
   inkscape:version="0.91 r13725"
   inkscape:export-filename="C:\Papyrus\Images\SIMAUserDocsLogo.png"
   inkscape:export-xdpi="40.942307"
   inkscape:export-ydpi="40.942307"
   sodipodi:docname="UserDocsLogo.svg">
  <defs
     id="defs3424">
    <clipPath
       id="clipPath4619-6"
       clipPathUnits="userSpaceOnUse">
      <path
         inkscape:connector-curvature="0"
         id="path4621-5"
         d="m 137.609,332.225 20.927,0 0,-20.911 -20.927,0 0,20.911 z" />
    </clipPath>
  </defs>
  <sodipodi:namedview
     id="base"
     pagecolor="#ffffff"
     bordercolor="#666666"
     borderopacity="1.0"
     inkscape:pageopacity="0.0"
     inkscape:pageshadow="2"
     inkscape:zoom="0.49497475"
     inkscape:cx="493.43469"
     inkscape:cy="-80.78457"
     inkscape:document-units="px"
     inkscape:current-layer="g4338"
     showgrid="false"
     fit-margin-top="0"
     fit-margin-left="0"
     fit-margin-right="0"
     fit-margin-bottom="0"
     showguides="true"
     inkscape:guide-bbox="true"
     inkscape:window-width="1024"
     inkscape:window-height="705"
     inkscape:window-x="-8"
     inkscape:window-y="304"
     inkscape:window-maximized="1">
    <sodipodi:guide
       position="-185.86807,192.13224"
       orientation="0,1"
       id="guide3500" />
    <sodipodi:guide
       position="1555.6349,93.137297"
       orientation="0,1"
       id="guide3502" />
  </sodipodi:namedview>
  <metadata
     id="metadata3427">
    <rdf:RDF>
      <cc:Work
         rdf:about="">
        <dc:format>image/svg+xml</dc:format>
        <dc:type
           rdf:resource="http://purl.org/dc/dcmitype/StillImage" />
        <dc:title></dc:title>
      </cc:Work>
    </rdf:RDF>
  </metadata>
  <g
     inkscape:label="Capa 1"
     inkscape:groupmode="layer"
     id="layer1"
     transform="translate(227.72438,538.32998)">
    <g
       id="g4338"
       transform="matrix(0.4456119,0,0,0.46632128,260.08658,-796.72058)">
      <path
         inkscape:export-ydpi="151.42999"
         inkscape:export-xdpi="151.42999"
         inkscape:connector-curvature="0"
         id="path4569"
         style="fill:#9cc1ca;fill-opacity:1;fill-rule:nonzero;stroke:none"
         d="m -789.28993,645.9041 -34.9588,0 0,254.76236 34.9588,0 0,-254.76236 z" />
      <path
         inkscape:export-ydpi="151.42999"
         inkscape:export-xdpi="151.42999"
         inkscape:connector-curvature="0"
         id="path4571"
         style="fill:#9cc1ca;fill-opacity:1;fill-rule:nonzero;stroke:none"
         d="m -418.96555,743.2743 -34.95868,0 0,157.39216 34.95868,0 0,-157.39216 z" />
      <path
         inkscape:export-ydpi="151.42999"
         inkscape:export-xdpi="151.42999"
         inkscape:connector-curvature="0"
         id="path4573"
         style="fill:#9cc1ca;fill-opacity:1;fill-rule:nonzero;stroke:none"
         d="m -568.34145,743.27085 -34.95868,0 0,157.38528 34.95868,0 0,-157.38528 z" />
      <g
         inkscape:export-ydpi="151.42999"
         inkscape:export-xdpi="151.42999"
         style="fill:#9cc1ca;fill-opacity:1"
         transform="matrix(3.0936944,0,0,-3.4111119,-453.80883,747.52583)"
         id="g4583">
        <path
           inkscape:connector-curvature="0"
           id="path4585"
           style="fill:#9cc1ca;fill-opacity:1;fill-rule:nonzero;stroke:none"
           d="M 0,0 C -0.019,10.23 -8.301,18.51 -18.528,18.527 -28.759,18.51 -37.037,10.23 -37.057,0 l -11.264,0 c 0.003,16.456 13.338,29.788 29.793,29.791 C -2.074,29.788 11.259,16.456 11.263,0 L 0,0 Z" />
      </g>
      <path
         inkscape:export-ydpi="151.42999"
         inkscape:export-xdpi="151.42999"
         inkscape:connector-curvature="0"
         id="path4587"
         style="fill:#9cc1ca;fill-opacity:1;fill-rule:nonzero;stroke:none"
         d="m -568.34145,743.2743 -34.95868,0 0,157.39216 34.95868,0 0,-157.39216 z" />
      <path
         inkscape:export-ydpi="151.42999"
         inkscape:export-xdpi="151.42999"
         inkscape:connector-curvature="0"
         id="path4589"
         style="fill:#9cc1ca;fill-opacity:1;fill-rule:nonzero;stroke:none"
         d="m -717.71735,743.27085 -34.95562,0 0,157.38528 34.95562,0 0,-157.38528 z" />
      <g
         inkscape:export-ydpi="151.42999"
         inkscape:export-xdpi="151.42999"
         style="fill:#9cc1ca;fill-opacity:1"
         transform="matrix(3.0936944,0,0,-3.4111119,-603.18388,747.52583)"
         id="g4591">
        <path
           inkscape:connector-curvature="0"
           id="path4593"
           style="fill:#9cc1ca;fill-opacity:1;fill-rule:nonzero;stroke:none"
           d="M 0,0 C -0.02,10.23 -8.301,18.51 -18.528,18.527 -28.76,18.51 -37.037,10.23 -37.058,0 l -11.263,0 c 0.003,16.456 13.337,29.788 29.793,29.791 C -2.074,29.788 11.26,16.456 11.263,0 L 0,0 Z" />
      </g>
      <g
         inkscape:export-ydpi="151.42999"
         inkscape:export-xdpi="151.42999"
         style="fill:#9cc1ca;fill-opacity:1"
         transform="matrix(3.0936944,0,0,-3.4111119,-863.64347,827.2654)"
         id="g4595">
        <path
           inkscape:connector-curvature="0"
           id="path4597"
           style="fill:#9cc1ca;fill-opacity:1;fill-rule:nonzero;stroke:none"
           d="m 0,0 c -0.009,11.907 -9.692,21.515 -21.602,21.515 l 0,-11.314 c 5.7,-0.011 10.274,-4.594 10.287,-10.201 -0.013,-5.61 -4.587,-10.192 -10.287,-10.201 l 0,-11.317 C -9.692,-21.518 -0.009,-11.909 0,0 m -74.686,31.711 c 0.009,-11.906 9.692,-21.514 21.602,-21.514 l 0,11.313 c -5.7,0.011 -10.274,4.595 -10.287,10.201 0.013,5.61 4.587,10.193 10.287,10.202 l 0,11.316 c -11.91,0 -21.593,-9.608 -21.602,-21.518 m 21.602,-21.495 31.482,0 0,11.299 -31.482,0 0,-11.299 z m -21.602,-31.731 53.084,0 0,11.299 -53.084,0 0,-11.299 z M 0,41.909 l -53.084,0 0,11.299 53.084,0 0,-11.299 z" />
      </g>
      <g
         inkscape:export-ydpi="151.42999"
         inkscape:export-xdpi="151.42999"
         style="fill:#9cc1ca;fill-opacity:1"
         transform="matrix(3.0936944,0,0,-3.4111119,-155.15253,900.66571)"
         id="g4599">
        <path
           inkscape:connector-curvature="0"
           id="path4601"
           style="fill:#9cc1ca;fill-opacity:1;fill-rule:nonzero;stroke:none"
           d="m 0,0 -37.341,0 0,11.301 26.041,0 0,26.04 -0.002,10e-4 C -11.329,51.72 -22.961,63.358 -37.341,63.38 -51.723,63.358 -63.355,51.72 -63.383,37.344 c 0.028,-14.381 11.66,-26.015 26.042,-26.043 l 0,-11.301 c -20.625,0.005 -37.341,16.712 -37.347,37.342 0.006,20.624 16.722,37.335 37.347,37.344 C -16.715,74.679 -0.003,57.968 0,37.342 L 0,0 Z" />
      </g>
      <g
         inkscape:export-ydpi="151.42999"
         inkscape:export-xdpi="151.42999"
         style="fill:#9cc1ca;fill-opacity:1"
         transform="matrix(3.0936944,0,0,-3.4111119,-17.147772,1038.5927)"
         id="g4603">
        <path
           inkscape:connector-curvature="0"
           id="path4605"
           style="fill:#9cc1ca;fill-opacity:1;fill-rule:nonzero;stroke:none"
           d="M 0,0 C 0.046,0.001 0.091,0.001 0.137,0.001 12.627,0.022 22.734,10.132 22.757,22.62 22.734,35.107 12.627,45.218 0.14,45.236 l 0,0.006 -22.623,-0.006 0,-22.616 C -22.46,10.174 -12.428,0.095 0,0 m -4.274,-3.173 c 0.003,0.015 0.008,0.028 0.014,0.043 l -0.001,0.002 c -0.005,-0.017 -0.01,-0.03 -0.013,-0.045 m -0.245,-1.625 c -10e-4,0.046 -10e-4,0.091 -10e-4,0.137 0,0.381 0.047,0.757 0.138,1.12 -0.087,-0.324 -0.159,-0.721 -0.137,-1.257 m 0.327,-1.588 c -0.079,0.199 -0.143,0.399 -0.195,0.606 0.046,-0.19 0.11,-0.394 0.195,-0.606 m 1.33,-1.838 c -0.031,0.025 -0.059,0.051 -0.089,0.075 -0.071,0.063 -0.14,0.129 -0.206,0.194 -0.121,0.124 -0.237,0.254 -0.346,0.384 0.185,-0.232 0.398,-0.454 0.641,-0.653 m 0.089,-0.075 c -0.003,0.005 -0.009,0.009 -0.015,0.014 0.006,-0.005 0.012,-0.009 0.015,-0.014 m 0.367,-0.264 c -0.124,0.081 -0.242,0.166 -0.358,0.256 0.118,-0.092 0.237,-0.178 0.358,-0.256 m 2.543,-0.754 c -0.282,0 -0.559,0.025 -0.83,0.072 0.309,-0.056 0.59,-0.076 0.83,-0.072 m -31.939,31.937 0,31.936 31.942,0 C 17.777,54.552 32.07,40.259 32.076,22.62 32.07,5.015 17.83,-9.264 0.233,-9.317 c -0.031,0 -0.063,-0.002 -0.096,-0.004 -17.642,0.007 -31.936,14.3 -31.939,31.941" />
      </g>
      <g
         inkscape:export-ydpi="151.42999"
         inkscape:export-xdpi="151.42999"
         style="fill:#9cc1ca;fill-opacity:1"
         transform="matrix(3.0936944,0,0,-3.4111119,-330.04313,1018.7857)"
         id="g4607">
        <path
           inkscape:connector-curvature="0"
           id="path4609"
           style="fill:#9cc1ca;fill-opacity:1;fill-rule:nonzero;stroke:none"
           d="m 0,0 c 0.003,15.588 12.638,28.222 28.229,28.225 l 0,-7.751 C 16.923,20.454 7.772,11.304 7.754,0 7.772,-11.309 16.92,-20.454 28.229,-20.475 39.531,-20.454 48.678,-11.309 48.702,0 l -0.003,20.474 -20.47,0 0,7.751 28.221,0 L 56.453,0 C 56.45,-15.591 43.818,-28.225 28.229,-28.225 12.638,-28.225 0.003,-15.591 0,0" />
      </g>
      <g
         inkscape:export-ydpi="151.42999"
         inkscape:export-xdpi="151.42999"
         style="fill:#9cc1ca;fill-opacity:1"
         transform="matrix(3.0936944,0,0,-3.4111119,10.151589,717.99314)"
         id="g4611">
        <path
           inkscape:connector-curvature="0"
           id="path4613"
           style="fill:#9cc1ca;fill-opacity:1;fill-rule:nonzero;stroke:none"
           d="m 0,0 c 0.002,0.004 0.002,0.008 0.005,0.011 l -0.003,0 C 0.002,0.008 0.002,0.004 0,0 m -4.941,-0.55 c -0.003,0.006 -0.006,0.012 -0.007,0.018 l -0.003,-0.001 c 0.003,-0.006 0.007,-0.011 0.01,-0.017 m 4.616,-0.271 c 0.154,0.24 0.221,0.429 0.261,0.578 -0.062,-0.202 -0.15,-0.396 -0.261,-0.578 m -4.317,-0.23 c -0.088,0.116 -0.166,0.239 -0.234,0.368 0.046,-0.094 0.107,-0.209 0.234,-0.368 m 1.467,-0.956 c -0.314,0.077 -0.614,0.21 -0.881,0.395 0.209,-0.146 0.5,-0.306 0.881,-0.395 m 0.97,-0.048 c 0.009,0.001 0.02,0.002 0.031,0.004 0.598,0.083 1.126,0.402 1.426,0.701 0.005,0.003 0.008,0.007 0.011,0.01 -0.4,-0.388 -0.92,-0.639 -1.468,-0.715 m -33.183,-12.512 15.105,0 c 8.34,0.015 15.088,6.762 15.103,15.104 l 0,0.001 c -0.015,8.34 -6.763,15.089 -15.103,15.106 -8.341,-0.017 -15.09,-6.768 -15.105,-15.107 l 0,-15.104 z m 15.105,-5.237 -20.343,0 0,20.341 c 0,11.235 9.107,20.339 20.343,20.342 C -9.061,20.876 0.035,11.794 0.056,0.574 0.056,0.561 0.06,0.549 0.06,0.537 0.056,-10.698 -9.051,-19.803 -20.283,-19.804 m 0,0 0,-0.003 0,0.003 z" />
      </g>
      <g
         transform="matrix(3.0936944,0,0,-3.4111119,-1279.7302,1687.3609)"
         id="g4623"
         style="fill:#ffffff;fill-opacity:1;stroke:none;stroke-opacity:1">
        <g
           clip-path="url(#clipPath4619-6)"
           id="g4625"
           style="fill:#ffffff;fill-opacity:1;stroke:none;stroke-opacity:1">
          <g
             id="g4219"
             style="fill:#ff6600;fill-opacity:1">
            <g
               style="fill:#ff6600;fill-opacity:1;stroke:none;stroke-opacity:1"
               id="g4631"
               transform="translate(153.5596,327.265)"
               inkscape:export-xdpi="151.42999"
               inkscape:export-ydpi="151.42999">
              <path
                 inkscape:connector-curvature="0"
                 id="path4633"
                 style="fill:#ff6600;fill-opacity:1;fill-rule:nonzero;stroke:none;stroke-opacity:1"
                 d="m 0,0 c -1.411,1.395 -3.348,2.279 -5.487,2.279 -2.14,0 -4.093,-0.884 -5.488,-2.279 -1.411,-1.411 -2.279,-3.348 -2.279,-5.487 0,-2.155 0.868,-4.093 2.279,-5.488 1.395,-1.41 3.348,-2.279 5.488,-2.279 l 7.766,0 0,7.767 C 2.263,-3.348 1.395,-1.411 0,0 m -5.487,4.96 c 2.883,0 5.503,-1.162 7.394,-3.053 1.906,-1.891 3.069,-4.511 3.069,-7.394 l 0,-10.464 -10.463,0 c -5.782,0 -10.464,4.682 -10.464,10.464 l 0,0.015 c 0.016,2.883 1.178,5.488 3.069,7.379 1.907,1.891 4.511,3.053 7.395,3.053 M -15.889,-5.89 c 0.016,-0.078 0.062,-0.171 0.14,-0.295 -0.062,0.093 -0.109,0.186 -0.14,0.295 m 0.713,-0.807 0.186,-0.077 c -0.062,0.015 -0.124,0.031 -0.186,0.077" />
            </g>
            <g
               style="fill:#ff6600;fill-opacity:1;stroke:none;stroke-opacity:1"
               id="g4627"
               transform="matrix(1.1455806,0,0,1.1037355,157.13528,321.70536)"
               inkscape:export-xdpi="151.42999"
               inkscape:export-ydpi="151.42999">
              <path
                 inkscape:connector-curvature="0"
                 id="path4629"
                 style="fill:#ff6600;fill-opacity:1;fill-rule:nonzero;stroke:none;stroke-opacity:1"
                 d="m 0,0 0,-7.766 -7.766,0 c -2.139,0 -4.092,0.868 -5.488,2.279 -1.41,1.395 -2.278,3.332 -2.278,5.487 0,2.139 0.868,4.077 2.278,5.487 1.396,1.396 3.349,2.279 5.488,2.279 2.139,0 4.077,-0.883 5.487,-2.279 C -0.884,4.077 -0.016,2.139 0,0" />
            </g>
          </g>
        </g>
      </g>
      <text
         xml:space="preserve"
         style="font-style:normal;font-weight:normal;font-size:259.23657227px;line-height:125%;font-family:sans-serif;letter-spacing:0px;word-spacing:0px;fill:#ff6600;fill-opacity:0.8125;stroke:none;stroke-width:1px;stroke-linecap:butt;stroke-linejoin:miter;stroke-opacity:1"
         x="880.14874"
         y="819.84387"
         id="text3411"
         sodipodi:linespacing="125%"
         transform="scale(0.89969027,1.1114936)"><tspan
           sodipodi:role="line"
           x="880.14874"
           y="819.84387"
           id="tspan3415"
           style="font-style:normal;font-variant:normal;font-weight:normal;font-stretch:normal;font-size:336.77023315px;font-family:'Segoe UI';-inkscape-font-specification:'Segoe UI';fill:#303940;fill-opacity:1">Documentation</tspan></text>
      <text
         xml:space="preserve"
         style="font-style:normal;font-weight:normal;font-size:406.76968384px;line-height:125%;font-family:sans-serif;letter-spacing:0px;word-spacing:0px;fill:#ff6600;fill-opacity:1;stroke:none;stroke-width:1px;stroke-linecap:butt;stroke-linejoin:miter;stroke-opacity:1"
         x="84.208519"
         y="870.13153"
         id="text3411-4"
         sodipodi:linespacing="125%"
         transform="scale(0.95256266,1.0497997)"
         inkscape:export-filename="C:\Papyrus\Images\es-ES_SimaFeaturedTraining.png"
         inkscape:export-xdpi="25"
         inkscape:export-ydpi="25"><tspan
           sodipodi:role="line"
           x="84.208519"
           y="870.13153"
           id="tspan3415-1"
           style="font-style:normal;font-variant:normal;font-weight:normal;font-stretch:normal;font-size:355.92340088px;font-family:'Segoe UI';-inkscape-font-specification:'Segoe UI';fill:#ff6600;fill-opacity:1">User</tspan></text>
    </g>
  </g>
</svg>
